HIERARCHY
ROOT hip
{
	OFFSET 0.000000 0.000000 0.000000 
	CHANNELS 6 Xposition Yposition Zposition Xrotation Zrotation Yrotation
	JOINT abdomen
	{
		OFFSET 0.000000 3.402643 0.000000 
		CHANNELS 3 Xrotation Zrotation Yrotation
		JOINT chest
		{
			OFFSET 0.000000 8.438565 -0.680529 
			CHANNELS 3 Xrotation Zrotation Yrotation
			JOINT neck
			{
				OFFSET 0.000000 10.207942 -0.272212 
				CHANNELS 3 Xrotation Zrotation Yrotation
				JOINT head
				{
					OFFSET 0.000000 3.130431 0.000000 
					CHANNELS 3 Xrotation Zrotation Yrotation
					End Site
					{
						OFFSET 0.000000 3.130435 0.000000 
					}
				}
			}
			JOINT lCollar
			{
				OFFSET 3.470700 6.669187 -0.816635 
				CHANNELS 3 Yrotation Zrotation Xrotation
				JOINT lShldr
				{
					OFFSET 3.198488 0.000000 0.000000 
					CHANNELS 3 Zrotation Yrotation Xrotation
					JOINT lForeArm
					{
						OFFSET 10.139888 0.000000 0.000000 
						CHANNELS 3 Yrotation Zrotation Xrotation
						JOINT lHand
						{
							OFFSET 8.370511 0.000000 0.000000 
							CHANNELS 3 Zrotation Yrotation Xrotation
							End Site
							{
								OFFSET 4.083176 0.000000 0.000000 
							}
						}
					}
				}
			}
			JOINT rCollar
			{
				OFFSET -3.470700 6.669187 -0.816635 
				CHANNELS 3 Yrotation Zrotation Xrotation
				JOINT rShldr
				{
					OFFSET -3.198488 0.000000 0.000000 
					CHANNELS 3 Zrotation Yrotation Xrotation
					JOINT rForeArm
					{
						OFFSET -10.139888 0.000000 0.000000 
						CHANNELS 3 Yrotation Zrotation Xrotation
						JOINT rHand
						{
							OFFSET -8.370511 0.000000 0.000000 
							CHANNELS 3 Zrotation Yrotation Xrotation
							End Site
							{
								OFFSET -4.083176 0.000000 0.000000 
							}
						}
					}
				}
			}
		}
	}
	JOINT lThigh
	{
		OFFSET 5.308129 -1.633274 1.361059 
		CHANNELS 3 Xrotation Zrotation Yrotation
		JOINT lShin
		{
			OFFSET -2.041588 -20.007561 0.000000 
			CHANNELS 3 Xrotation Zrotation Yrotation
			JOINT lFoot
			{
				OFFSET 0.000000 -19.190928 -1.224953 
				CHANNELS 3 Xrotation Yrotation Zrotation
				End Site
				{
					OFFSET 0.000000 -2.449906 4.627600 
				}
			}
		}
	}
	JOINT rThigh
	{
		OFFSET -5.308129 -1.633274 1.361059 
		CHANNELS 3 Xrotation Zrotation Yrotation
		JOINT rShin
		{
			OFFSET 2.041588 -20.007561 0.000000 
			CHANNELS 3 Xrotation Zrotation Yrotation
			JOINT rFoot
			{
				OFFSET 0.000000 -19.190928 -1.224953 
				CHANNELS 3 Xrotation Yrotation Zrotation
				End Site
				{
					OFFSET 0.000000 -2.449906 4.627600 
				}
			}
		}
	}
}
MOTION
Frames: 6
Frame Time: 0.033333
-8.903980 40.799717 13.184855 5.663854 -3.323575 19.680323 0.000000 0.000000 0.000000 2.544878 3.873141 -0.638267 -25.558237 4.131448 -10.005926 17.625158 -3.578343 -5.235834 -3.519355 9.157742 6.311733 -106.124947 -51.751488 23.892466 -76.706322 -0.862882 28.335775 -5.685980 13.830394 -8.715719 3.090466 -14.082293 8.028685 -35.920719 46.900955 -139.225922 18.884712 -14.161654 57.136475 33.568344 -11.495090 -8.745575 7.362713 25.917675 22.740959 43.729935 -7.309907 -21.120378 -15.723949 -4.015978 20.593418 -47.319042 -32.697784 -20.055626 73.609993 -5.810863 -9.532246 2.357537 -0.161621 3.227711 
-8.446636 41.394558 15.843895 6.043966 -3.088240 15.845004 0.000000 0.000000 0.000000 -1.427536 2.840916 -2.971071 -22.230452 4.254627 -7.487154 18.361578 -5.245696 -3.079228 -3.519355 9.157742 6.311733 -102.926666 -52.335312 18.594717 -79.684975 -1.192419 27.128448 -5.734034 14.218349 -8.759061 3.090466 -14.082293 8.028685 -33.195343 55.529949 -132.552200 19.378580 -14.784631 57.314991 33.080410 -11.411724 -8.721408 9.944821 22.484018 20.236622 42.274986 -4.946959 -19.318195 -9.332253 -1.347520 9.974436 -42.975719 -30.054533 -21.000290 72.386711 -5.430428 -10.686843 -3.409046 -0.240598 2.023767 
-8.162891 41.836765 18.688267 5.671575 -2.944525 10.107979 0.000000 0.000000 0.000000 -4.577133 3.124788 -5.152006 -18.988750 3.188597 -3.391887 18.736328 -4.749319 -0.379329 -3.519355 9.157742 6.311733 -94.570435 -54.198673 6.065949 -82.823814 -1.904657 25.833555 -5.328968 15.666759 -8.923661 3.090466 -14.082293 8.028685 -32.383801 66.507500 -127.231560 20.076178 -15.665080 56.943928 33.304089 -11.411714 -8.718751 9.861881 21.171213 20.042290 47.306561 -3.209412 -12.590941 0.931169 0.464967 -8.677484 -37.167088 -25.243065 -18.971857 68.467430 -5.772442 -10.740595 -12.987843 -0.103561 -0.042442 
-7.808503 41.871490 21.271608 5.080196 -1.634184 5.411164 0.000000 0.000000 0.000000 -5.610816 2.497756 -7.276321 -17.804564 2.835391 0.051751 18.885656 -4.900877 2.363955 -3.519355 9.157742 6.311733 -81.714516 -59.939854 -11.066233 -81.368271 -2.276787 24.571421 -6.341496 17.626785 -9.203755 3.090466 -14.082293 8.028685 -31.985516 74.876823 -123.902802 21.114767 -16.283705 57.322273 34.417110 -11.018996 -8.562633 7.252010 20.210175 20.191687 55.057095 -2.644516 -3.751063 11.512231 -1.057211 -24.118744 -32.285046 -23.574121 -16.121792 65.709763 -6.982385 -7.433682 -21.531221 0.403580 -2.318797 
-7.285863 41.735462 23.349527 5.313533 -1.127946 3.098055 0.000000 0.000000 0.000000 -6.002591 2.661132 -10.308710 -18.690926 2.928555 2.582788 18.696848 -5.913573 4.691071 -3.519355 9.157742 6.311733 -62.822952 -67.983856 -34.273304 -72.167648 -0.802804 27.146036 -5.945669 18.896744 -9.335376 3.090466 -14.082293 8.028685 -27.481472 81.127144 -118.125496 23.341469 -15.811331 59.926865 34.522781 -11.438688 -8.727435 -1.174178 20.051769 21.497616 67.092209 -3.526707 -14.457351 8.145861 -0.287484 -20.000378 -30.927547 -24.443150 -15.093623 66.087425 -7.743849 -4.519736 -21.007202 0.471420 -2.645799 
-6.683689 41.588364 25.171902 5.646832 -1.632668 1.801268 0.000000 0.000000 0.000000 -5.493585 4.238327 -13.277949 -21.543924 2.279725 4.512957 19.710634 -6.028375 5.898283 -3.519355 9.157742 6.311733 -22.518654 -74.338280 -75.711617 -54.457104 5.523472 31.731133 -4.090881 17.992222 -9.129568 3.090466 -14.082293 8.028685 -18.559816 87.438187 -109.674118 26.068874 -14.881783 61.877380 36.078224 -12.457970 -9.137275 -11.933188 21.616121 24.141407 79.067986 -3.718750 -17.667685 2.363635 0.405393 -10.527937 -28.904238 -24.635807 -15.144725 65.492210 -7.841475 -3.896795 -21.105391 0.495728 -2.642729 
